<?xml version="1.0" standalone="no"?>
<!DOCTYPE svg PUBLIC "-//W3C//DTD SVG 20010904//EN"
 "http://www.w3.org/TR/2001/REC-SVG-20010904/DTD/svg10.dtd">
<svg version="1.0" xmlns="http://www.w3.org/2000/svg"
 width="225.000000pt" height="225.000000pt" viewBox="0 0 225.000000 225.000000"
 preserveAspectRatio="xMidYMid meet">
<metadata>
Created by potrace 1.14, written by Peter Selinger 2001-2017
</metadata>
<g transform="translate(0.000000,225.000000) scale(0.100000,-0.100000)"
fill="#000000" stroke="none">
<path d="M354 1916 c-39 -17 -44 -30 -44 -125 l0 -77 -48 -50 c-69 -71 -86
-132 -80 -278 16 -353 283 -738 643 -927 241 -127 497 -166 717 -110 178 46
338 162 338 245 0 51 -22 69 -100 81 -86 13 -86 14 -28 52 143 93 247 243 219
316 -8 20 -5 31 16 58 76 101 104 218 62 260 -26 26 -44 23 -230 -36 -268 -86
-487 -110 -638 -71 -144 37 -298 149 -422 306 -77 97 -93 111 -172 140 -42 16
-58 28 -75 59 -12 21 -22 53 -22 69 0 43 -18 78 -47 91 -31 14 -51 13 -89 -3z
m61 -108 c16 -102 34 -145 70 -167 46 -27 71 -69 85 -150 32 -168 124 -376
221 -499 70 -88 145 -144 284 -212 169 -83 331 -126 653 -171 45 -6 82 -15 82
-19 0 -17 -96 -92 -154 -120 -189 -93 -425 -93 -679 0 -287 105 -542 360 -663
664 -89 223 -81 437 19 496 58 34 58 34 51 131 -6 77 -5 89 9 89 10 0 17 -14
22 -42z m544 -533 c97 -63 168 -91 270 -106 165 -24 356 3 617 86 80 25 149
43 152 40 11 -10 -66 -149 -100 -182 -31 -30 -41 -32 -163 -47 -72 -9 -191
-16 -265 -16 -322 0 -499 85 -671 320 -56 76 -49 83 17 19 38 -37 102 -88 143
-114z m-239 80 c72 -110 206 -240 295 -287 183 -95 418 -118 759 -73 65 9 121
13 124 10 12 -12 -35 -82 -96 -142 -71 -71 -211 -148 -265 -146 -55 2 -247 52
-341 90 -234 92 -372 219 -465 425 -41 90 -84 225 -67 207 3 -2 28 -40 56 -84z"/>
</g>
</svg>
